<?xml version="1.0" standalone="no"?>
<!DOCTYPE svg PUBLIC "-//W3C//DTD SVG 20010904//EN"
 "http://www.w3.org/TR/2001/REC-SVG-20010904/DTD/svg10.dtd">
<svg version="1.0" xmlns="http://www.w3.org/2000/svg"
 width="100.000000pt" height="100.000000pt" viewBox="0 0 100.000000 100.000000"
 preserveAspectRatio="xMidYMid meet">

<g transform="translate(0.000000,100.000000) scale(0.100000,-0.100000)"
fill="#000000" stroke="none">
<path d="M676 801 c-10 -11 -25 -16 -40 -14 -16 3 -29 -3 -42 -19 -16 -20 -29
-23 -86 -24 -80 -2 -123 -25 -155 -81 -50 -89 -48 -162 4 -231 13 -18 28 -46
33 -62 8 -28 7 -29 -12 -19 -15 8 -27 8 -45 0 -13 -6 -32 -11 -42 -11 -20 0
-71 -60 -71 -82 0 -23 22 -38 55 -37 30 2 30 2 -5 8 -38 7 -53 36 -28 55 8 6
17 19 21 30 5 13 14 17 32 14 14 -3 30 1 36 8 16 19 35 17 51 -4 7 -10 30 -26
51 -36 29 -13 37 -22 35 -39 -3 -19 -11 -23 -58 -28 l-55 -6 50 -1 c81 -3 102
40 40 80 -21 14 -35 31 -35 44 0 11 -16 47 -36 80 -49 80 -55 134 -21 208 35
75 70 96 162 96 118 -1 195 -55 195 -139 0 -17 12 -50 27 -72 22 -34 24 -42
12 -50 -8 -5 -20 -9 -28 -9 -11 0 -12 -11 -8 -51 9 -71 -3 -89 -58 -89 l-45 0
2 -52 2 -53 3 48 4 47 43 0 c58 0 70 16 64 84 -4 51 -3 55 19 61 29 7 29 31 0
75 -14 20 -24 51 -24 73 l-1 37 62 0 c48 0 67 4 79 18 26 28 21 48 -20 80 -44
34 -83 47 -83 27 0 -9 8 -11 21 -8 13 4 27 0 33 -8 6 -8 20 -19 31 -25 24 -14
31 -40 15 -59 -9 -11 -33 -15 -81 -15 -61 0 -70 3 -84 24 -9 13 -36 34 -60 47
-47 25 -51 35 -22 53 12 8 22 8 34 0 14 -9 20 -7 28 10 6 11 21 23 35 27 22 6
22 7 4 8 -11 1 -28 -7 -38 -18z"/>
<path d="M553 675 c-49 -58 29 -135 83 -81 23 24 23 58 0 81 -25 25 -62 25
-83 0z m72 -40 c0 -27 -3 -30 -30 -30 -21 0 -31 5 -33 18 -6 33 6 49 35 45 24
-3 28 -8 28 -33z"/>
<path d="M580 635 c0 -8 7 -15 15 -15 8 0 15 7 15 15 0 8 -7 15 -15 15 -8 0
-15 -7 -15 -15z"/>
<path d="M410 582 c0 -7 -8 -16 -18 -19 -27 -7 -27 -89 0 -96 10 -3 18 -12 18
-19 0 -11 13 -15 45 -15 32 0 45 4 45 15 0 7 8 16 18 19 15 3 19 14 19 49 0
31 -4 44 -15 44 -7 0 -16 8 -19 18 -3 15 -14 19 -49 19 -31 0 -44 -4 -44 -15z
m90 -22 c23 -23 22 -68 0 -90 -10 -10 -30 -17 -45 -17 -54 0 -84 68 -46 106
21 22 70 22 91 1z"/>
<path d="M434 525 c-4 -9 -2 -21 4 -27 15 -15 44 -1 40 19 -4 23 -36 29 -44 8z"/>
<path d="M560 330 c8 -5 22 -9 30 -9 10 0 8 3 -5 9 -27 12 -43 12 -25 0z"/>
</g>
</svg>
