<?xml version="1.0" standalone="no"?>
<!DOCTYPE svg PUBLIC "-//W3C//DTD SVG 20010904//EN"
 "http://www.w3.org/TR/2001/REC-SVG-20010904/DTD/svg10.dtd">
<svg version="1.0" xmlns="http://www.w3.org/2000/svg"
 width="640.000000pt" height="400.000000pt" viewBox="0 0 640.000000 400.000000"
 preserveAspectRatio="xMidYMid meet">

<g transform="translate(0.000000,400.000000) scale(0.100000,-0.100000)"
fill="#000000" stroke="none">
<path d="M3733 3945 c-6 -19 -8 -35 -3 -35 4 0 10 8 13 18 2 9 8 25 12 35 4 9
3 17 -2 17 -5 0 -14 -16 -20 -35z"/>
<path d="M3781 3964 c0 -11 3 -14 6 -6 3 7 2 16 -1 19 -3 4 -6 -2 -5 -13z"/>
<path d="M3766 3937 c3 -10 9 -15 12 -12 3 3 0 11 -7 18 -10 9 -11 8 -5 -6z"/>
<path d="M3722 3814 c16 -8 31 -28 37 -47 7 -25 9 -27 10 -9 1 25 -40 72 -61
72 -7 -1 -1 -7 14 -16z"/>
<path d="M4015 3819 c-4 -6 -5 -12 -2 -15 2 -3 7 2 10 11 7 17 1 20 -8 4z"/>
<path d="M4100 3826 c0 -2 16 -6 35 -8 19 -2 35 0 35 4 0 4 -16 8 -35 8 -19 0
-35 -2 -35 -4z"/>
<path d="M3868 3813 c7 -3 16 -2 19 1 4 3 -2 6 -13 5 -11 0 -14 -3 -6 -6z"/>
<path d="M3933 3795 c9 -8 17 -20 19 -27 2 -6 10 -8 16 -4 9 5 6 13 -12 27
-29 22 -44 25 -23 4z"/>
<path d="M3218 3773 c7 -3 16 -2 19 1 4 3 -2 6 -13 5 -11 0 -14 -3 -6 -6z"/>
<path d="M4040 3766 c0 -2 7 -9 15 -16 9 -7 15 -8 15 -2 0 5 -7 12 -15 16 -8
3 -15 4 -15 2z"/>
<path d="M3378 3753 c7 -3 16 -2 19 1 4 3 -2 6 -13 5 -11 0 -14 -3 -6 -6z"/>
<path d="M3440 3750 c0 -9 39 -25 45 -18 2 2 -7 8 -21 15 -13 6 -24 7 -24 3z"/>
<path d="M3669 3747 c5 -5 21 -7 37 -5 27 3 26 4 -8 9 -22 3 -34 1 -29 -4z"/>
<path d="M3900 3750 c-8 -5 -10 -10 -5 -10 6 0 17 5 25 10 8 5 11 10 5 10 -5
0 -17 -5 -25 -10z"/>
<path d="M4159 3745 c36 -8 67 -12 70 -10 9 9 -4 13 -69 19 l-65 6 64 -15z"/>
<path d="M3600 3725 c-10 -27 -19 -31 -38 -15 -9 7 -9 7 -2 -2 6 -7 10 -29 10
-51 0 -23 10 -56 26 -83 37 -63 48 -64 13 -2 -36 66 -36 100 -3 144 15 19 21
34 15 34 -6 0 -16 -11 -21 -25z"/>
<path d="M3790 3734 c-27 -14 -27 -15 -58 -201 -10 -62 -15 -113 -12 -113 3 0
14 48 23 108 29 179 29 181 62 202 34 22 23 25 -15 4z"/>
<path d="M3848 3733 c6 -2 18 -2 25 0 6 3 1 5 -13 5 -14 0 -19 -2 -12 -5z"/>
<path d="M3263 3713 c9 -2 23 -2 30 0 6 3 -1 5 -18 5 -16 0 -22 -2 -12 -5z"/>
<path d="M3318 3713 c7 -3 16 -2 19 1 4 3 -2 6 -13 5 -11 0 -14 -3 -6 -6z"/>
<path d="M4148 3703 c7 -3 16 -2 19 1 4 3 -2 6 -13 5 -11 0 -14 -3 -6 -6z"/>
<path d="M3646 3475 c3 -21 14 -51 25 -66 23 -33 25 -102 4 -153 -20 -48 -32
-209 -28 -376 3 -117 7 -142 29 -195 37 -88 38 -96 14 -169 -20 -59 -25 -66
-44 -60 -12 3 -50 36 -86 74 -36 37 -92 92 -125 121 -33 29 -74 71 -91 94 -30
39 -117 95 -145 95 -8 0 6 -9 30 -21 27 -12 83 -58 141 -117 53 -53 143 -142
200 -196 123 -118 118 -101 120 -376 3 -301 3 -303 -14 -362 -10 -36 -15 -85
-13 -140 3 -105 -18 -152 -73 -169 -19 -6 -52 -22 -72 -35 -21 -13 -46 -24
-57 -24 -11 0 -44 -9 -73 -19 -29 -11 -76 -22 -105 -24 -29 -3 -58 -9 -65 -13
-7 -4 -26 -7 -43 -7 -28 1 -28 1 -5 -6 l25 -7 -25 -14 c-14 -7 -36 -19 -50
-27 -14 -7 -19 -13 -12 -13 13 0 60 24 102 52 14 10 46 19 72 22 40 4 114 24
213 58 111 38 154 33 122 -14 -62 -90 -229 -218 -381 -292 -35 -17 -71 -37
-80 -45 -11 -9 -32 -12 -68 -9 -46 5 -49 4 -27 -8 29 -15 74 -8 112 19 16 10
31 17 33 14 12 -12 -9 -48 -39 -69 -18 -13 -57 -45 -89 -73 -31 -27 -77 -65
-102 -83 -25 -18 -46 -38 -46 -44 0 -7 15 2 33 19 17 17 46 38 64 47 17 9 38
24 45 33 7 10 43 44 81 76 37 32 70 69 73 82 3 14 25 33 57 50 29 16 80 48
114 72 35 24 76 49 92 56 16 7 46 33 67 59 22 26 56 58 76 72 l38 25 25 -27
c14 -15 25 -21 25 -13 0 7 6 11 14 8 9 -4 16 3 20 18 9 37 33 37 108 -1 l71
-36 136 2 c183 2 210 4 204 13 -3 5 8 23 23 40 l29 32 -30 -26 c-45 -40 -87
-48 -230 -48 l-130 0 -67 40 c-66 39 -146 126 -166 181 -16 42 -14 155 4 239
l18 82 46 20 c66 28 107 63 130 108 11 21 26 39 34 39 7 0 30 21 52 46 21 26
53 60 70 78 18 17 44 52 59 78 15 27 40 57 57 69 16 12 27 24 24 27 -9 8 -55
-38 -84 -83 -30 -48 -171 -205 -183 -205 -8 0 3 27 62 145 l20 40 -25 -30
c-14 -16 -26 -37 -26 -45 0 -8 -7 -28 -16 -45 -9 -16 -29 -55 -44 -85 -34 -68
-59 -91 -131 -123 l-56 -25 -7 97 c-3 53 -6 157 -6 231 0 74 -5 153 -11 174
-9 34 -7 50 15 116 l26 77 -32 69 c-35 75 -35 74 -37 339 -1 109 4 159 19 225
12 47 23 95 25 107 3 11 8 29 12 39 4 11 3 15 -4 11 -13 -8 -40 32 -59 87
l-14 41 6 -40z m45 -1948 c-10 -9 -11 -8 -5 6 3 10 9 15 12 12 3 -3 0 -11 -7
-18z m29 -72 c0 -18 -5 -25 -19 -25 -24 0 -33 13 -25 34 10 27 44 20 44 -9z
m27 -37 c-3 -8 -6 -5 -6 6 -1 11 2 17 5 13 3 -3 4 -12 1 -19z"/>
<path d="M5606 3389 c-32 -25 -32 -62 -1 -67 18 -2 18 -2 3 8 -24 15 -23 27 8
55 33 31 26 33 -10 4z"/>
<path d="M1332 3295 c-1 -19 3 -35 8 -35 6 0 10 16 10 35 0 19 -4 35 -8 35 -5
0 -9 -16 -10 -35z"/>
<path d="M1294 3278 l-19 -23 23 19 c21 18 27 26 19 26 -2 0 -12 -10 -23 -22z"/>
<path d="M5921 3204 c0 -28 5 -69 13 -90 8 -24 11 -64 9 -104 -2 -36 -4 -112
-4 -170 2 -231 0 -263 -13 -289 -17 -31 -8 -150 13 -175 16 -19 16 -89 1 -146
-6 -21 -8 -50 -5 -63 4 -13 -3 -49 -14 -80 -14 -42 -17 -65 -11 -87 7 -23 4
-36 -14 -62 -29 -43 -76 -59 -206 -68 -58 -4 -112 -11 -121 -14 -11 -5 -23 4
-41 31 -15 22 -51 54 -89 76 -78 46 -88 54 -117 91 -45 59 -16 160 64 221 37
29 170 60 206 49 10 -3 26 0 37 5 40 22 59 147 33 217 l-16 42 31 26 c37 31
56 97 48 171 -2 28 0 65 6 83 9 27 7 38 -11 68 -19 30 -21 45 -17 102 l5 67
-10 -64 c-9 -54 -9 -69 5 -95 12 -24 15 -52 12 -121 -7 -140 -13 -170 -42
-196 l-26 -24 7 40 c5 34 4 36 -5 15 -6 -14 -8 -46 -4 -75 4 -27 8 -88 8 -133
2 -77 0 -85 -22 -103 -13 -11 -31 -17 -40 -14 -27 8 -180 -21 -200 -39 -24
-22 -26 -21 -28 22 0 20 -4 60 -8 87 -7 48 -5 53 29 94 28 33 36 51 35 79 l-2
37 -6 -43 c-4 -23 -15 -50 -24 -60 -16 -15 -17 -14 -18 13 0 17 -4 39 -9 50
-6 13 -7 4 -3 -26 4 -32 0 -61 -12 -91 -15 -42 -15 -48 0 -84 21 -51 13 -93
-30 -153 -28 -41 -33 -55 -31 -104 1 -55 1 -56 -24 -50 -14 3 -37 14 -51 24
-14 10 -28 17 -30 14 -2 -2 -31 3 -64 10 -49 12 -68 22 -102 59 -60 63 -65 88
-27 146 16 24 15 24 -9 -2 -14 -15 -27 -32 -29 -40 -4 -10 -11 -8 -34 6 -26
16 -25 14 7 -16 19 -18 42 -46 49 -61 17 -34 84 -96 105 -98 8 -1 18 -2 23 -3
4 -1 23 -6 42 -10 64 -15 155 -58 204 -97 27 -22 53 -39 58 -39 20 0 97 -61
104 -83 9 -28 6 -74 -6 -97 -5 -10 -29 -27 -53 -38 -107 -50 -136 -153 -71
-251 24 -37 25 -41 10 -68 -32 -60 -36 -74 -26 -93 5 -10 10 -31 10 -45 0 -14
5 -36 11 -47 15 -27 13 -177 -2 -214 -15 -38 -13 -72 13 -174 14 -57 20 -112
19 -164 -2 -92 8 -97 15 -8 4 47 -1 88 -22 171 -25 98 -27 116 -16 158 20 84
24 156 11 208 -6 28 -13 73 -15 101 -4 49 -2 54 39 98 37 39 49 46 81 46 20 0
51 6 69 14 41 17 87 70 87 101 0 35 -27 104 -54 136 -34 41 -39 63 -22 98 18
35 28 38 121 45 39 3 98 15 133 26 34 11 67 18 73 15 5 -4 50 8 99 26 90 32
91 32 124 14 33 -18 33 -18 77 8 24 15 37 27 28 27 -9 0 -22 -7 -29 -15 -20
-24 -50 -28 -71 -9 -18 17 -18 18 18 49 36 31 38 34 41 111 3 57 9 84 22 99
10 11 22 30 28 41 15 29 31 134 20 134 -4 0 -8 -15 -8 -32 0 -48 -17 -103 -39
-122 -18 -16 -19 -16 -24 6 -4 13 0 48 8 77 11 41 11 59 3 75 -6 12 -11 48
-11 81 0 52 -2 56 -10 31 -7 -21 -6 -49 3 -92 6 -35 8 -69 4 -76 -5 -7 -9 -74
-9 -148 0 -152 -8 -172 -75 -205 -19 -10 -43 -21 -52 -26 -10 -5 -26 -9 -36
-9 -10 0 -35 -9 -57 -20 -45 -23 -60 -15 -45 25 6 15 8 42 4 61 -4 20 0 52 10
82 9 27 16 65 16 83 -1 41 22 145 41 185 8 16 30 36 49 45 57 27 74 54 77 117
1 32 6 80 12 107 5 28 10 55 10 62 1 6 13 25 27 42 20 24 27 45 30 94 3 34 9
85 14 112 15 82 20 141 9 124 -5 -7 -9 -31 -9 -52 0 -21 -5 -47 -11 -58 -6
-11 -12 -59 -15 -107 -3 -57 -10 -92 -19 -101 -16 -16 -18 -13 -29 44 -19 91
-24 206 -13 270 6 37 5 37 -9 -9 -13 -40 -14 -65 -6 -145 6 -53 15 -116 20
-141 8 -34 7 -55 -4 -85 -8 -22 -17 -78 -20 -125 -7 -92 -18 -112 -79 -141
-17 -8 -36 -28 -44 -44 -13 -26 -16 -27 -19 -10 -3 11 -11 29 -18 40 -17 23
-18 112 -3 152 19 50 30 150 18 180 -16 43 -19 182 -4 239 13 49 7 127 -12
156 -3 7 -9 39 -13 72 l-7 61 -2 -51z m-427 -1536 c-4 -7 -3 -8 5 -4 18 12 41
-13 41 -45 0 -16 -9 -37 -22 -49 -36 -33 -77 -23 -105 27 -11 19 -9 26 16 52
27 29 81 45 65 19z m-114 -68 c0 -5 -5 -10 -11 -10 -5 0 -7 5 -4 10 3 6 8 10
11 10 2 0 4 -4 4 -10z m175 -50 c3 -5 -1 -10 -10 -10 -9 0 -13 5 -10 10 3 6 8
10 10 10 2 0 7 -4 10 -10z"/>
<path d="M5455 1639 c-10 -15 3 -25 16 -12 7 7 7 13 1 17 -6 3 -14 1 -17 -5z"/>
<path d="M1119 3163 c18 -62 75 -186 111 -241 41 -64 55 -108 51 -160 -2 -21
4 -41 14 -53 14 -14 16 -28 11 -59 -4 -25 -2 -49 5 -63 7 -12 14 -40 16 -62 3
-22 15 -56 27 -75 65 -105 79 -157 96 -355 5 -60 14 -153 20 -205 24 -212 24
-203 0 -251 -13 -24 -30 -49 -39 -56 -19 -15 -90 -17 -123 -4 -13 5 -48 14
-78 21 -30 7 -68 20 -85 30 -16 9 -56 22 -87 29 -32 7 -60 16 -63 20 -2 5 -30
21 -61 37 -32 16 -65 41 -74 56 -28 47 -103 122 -152 153 -26 17 -50 39 -54
49 -3 11 -23 44 -43 74 -20 29 -44 67 -53 84 -21 39 -45 55 -115 78 -57 19
-163 27 -163 13 0 -5 26 -8 57 -9 103 -1 203 -42 203 -84 0 -10 11 -25 25 -34
14 -9 25 -25 25 -35 0 -10 9 -26 20 -36 10 -9 24 -33 30 -51 7 -19 16 -34 22
-34 25 0 145 -114 180 -170 l18 -30 -26 0 c-14 0 -42 11 -62 25 -20 14 -47 25
-59 25 -12 0 -60 24 -105 53 -97 62 -122 76 -89 49 l24 -19 -25 -6 c-14 -4
-47 0 -74 8 -27 8 -60 14 -74 14 -20 -1 -21 -2 -5 -5 11 -3 46 -12 79 -20 32
-9 69 -13 82 -10 26 7 91 -21 137 -60 16 -13 41 -24 56 -24 16 0 39 -8 52 -19
13 -10 41 -21 61 -25 21 -4 69 -25 108 -47 38 -22 87 -45 107 -51 69 -18 298
-121 316 -141 24 -27 21 -49 -10 -79 -57 -52 -124 -79 -243 -98 -168 -27 -278
-40 -341 -40 -31 0 -85 -9 -120 -19 -81 -24 -166 -38 -299 -50 l-105 -9 125 5
c74 3 158 13 205 25 44 11 89 21 100 23 11 1 27 5 35 8 8 3 62 8 120 10 58 3
170 15 249 27 l144 21 62 -30 c68 -34 89 -64 80 -115 -7 -34 -15 -47 -72 -111
-24 -26 -43 -51 -43 -55 0 -13 -174 -154 -220 -178 -55 -30 -151 -61 -206 -67
-41 -5 -74 -18 -109 -40 -27 -18 -68 -39 -90 -46 -40 -14 -113 -57 -169 -101
-17 -13 -68 -47 -115 -75 -48 -29 -81 -53 -75 -53 6 0 26 10 45 23 19 12 54
33 79 46 25 12 54 31 65 41 46 40 129 92 180 111 30 11 57 24 60 29 12 19 84
48 138 54 32 4 77 16 100 27 63 28 73 23 36 -18 -19 -21 -40 -57 -48 -80 -10
-31 -39 -67 -113 -137 -54 -53 -107 -96 -117 -96 -11 0 -32 -16 -48 -36 -15
-20 -51 -60 -79 -90 -28 -30 -46 -54 -41 -54 11 0 84 76 130 134 16 20 38 36
49 36 31 0 221 199 236 247 15 49 65 98 172 169 47 31 109 79 137 106 29 27
68 55 88 63 37 16 171 20 193 7 12 -8 29 -53 38 -102 2 -14 9 -45 14 -70 17
-81 22 -184 11 -213 -9 -24 -7 -37 10 -75 63 -142 68 -189 35 -353 -17 -87
-20 -183 -6 -174 6 3 10 33 10 65 0 32 7 90 15 128 25 122 22 176 -18 277 -34
89 -35 91 -28 200 l6 110 21 -54 c30 -80 81 -114 174 -117 38 -1 74 -5 79 -8
5 -4 23 -34 40 -69 28 -57 36 -65 88 -90 32 -15 67 -27 78 -27 11 0 41 -11 66
-25 27 -14 71 -27 104 -30 31 -2 66 -12 78 -20 12 -8 33 -15 47 -15 15 0 35
-7 46 -15 10 -8 24 -14 29 -14 6 -1 -1 8 -15 19 -14 11 -38 20 -53 20 -15 0
-39 7 -53 16 -14 9 -43 18 -65 20 -60 4 -96 14 -109 29 -6 8 -30 17 -53 21
-59 9 -150 55 -157 79 -3 11 -17 39 -32 62 -16 24 -28 45 -28 49 0 6 71 -1
115 -12 14 -3 11 0 -7 11 -18 10 -51 15 -105 14 -188 -3 -202 4 -264 138 -33
72 -39 96 -44 178 -5 74 -2 101 10 124 18 36 19 45 3 35 -7 -5 -8 -3 -4 5 5 7
13 10 20 8 7 -3 37 12 68 33 68 47 109 56 168 37 25 -8 99 -21 165 -28 132
-14 116 -5 209 -113 65 -75 120 -105 178 -99 38 4 49 1 77 -23 34 -28 54 -33
191 -48 50 -5 52 -5 20 5 -19 6 -64 14 -100 17 -50 5 -74 14 -102 36 -31 23
-45 27 -80 24 -45 -5 -103 17 -136 50 -62 65 -102 113 -102 125 0 18 115 46
181 46 28 0 63 8 88 20 29 15 66 23 125 26 89 4 161 19 171 35 8 12 3 12 -28
1 -26 -10 -60 -15 -167 -27 -36 -3 -83 -15 -104 -25 -22 -11 -62 -19 -90 -20
-28 0 -82 -8 -121 -18 -47 -12 -80 -15 -100 -10 -16 5 -74 15 -127 23 -119 18
-180 46 -224 105 -37 47 -40 66 -22 106 11 25 82 65 117 65 9 0 39 12 66 25
30 15 68 25 95 25 30 0 59 9 85 25 42 25 110 60 135 68 10 4 8 6 -6 6 -11 1
-51 -18 -89 -41 -48 -28 -85 -43 -117 -46 -27 -2 -48 -2 -48 2 0 17 46 95 79
134 20 24 98 106 174 184 75 78 135 143 132 146 -4 5 -53 -44 -105 -104 -14
-16 -41 -42 -60 -57 -19 -14 -53 -49 -75 -78 -22 -28 -54 -66 -72 -84 -17 -19
-44 -57 -59 -85 -32 -59 -78 -88 -159 -103 -104 -18 -122 -13 -181 50 -35 38
-72 96 -108 168 -47 95 -57 125 -72 220 -9 61 -18 130 -20 155 -1 25 -8 80
-15 123 -14 83 -8 113 41 223 22 48 35 60 75 67 89 18 124 26 167 42 45 16 72
35 49 35 -5 0 -13 -4 -16 -10 -3 -5 -16 -10 -28 -10 -13 0 -31 -6 -42 -14 -11
-7 -36 -16 -55 -19 -19 -3 -48 -9 -63 -13 -26 -6 -28 -5 -21 20 4 17 0 35 -11
53 -10 14 -22 38 -26 52 -8 22 -8 21 -4 -8 3 -19 12 -42 20 -51 22 -24 19 -46
-10 -72 -29 -28 -75 -115 -75 -144 0 -12 -6 -26 -13 -32 -10 -9 -19 0 -37 36
-14 26 -35 61 -47 78 -14 18 -23 45 -23 66 0 20 -6 48 -14 62 -8 17 -12 44 -8
72 3 34 0 49 -13 64 -13 14 -16 28 -11 50 7 38 -11 92 -51 150 -33 50 -114
233 -111 251 2 6 -2 13 -9 16 -9 3 -10 -3 -4 -24z m366 -1643 c3 -5 1 -10 -4
-10 -6 0 -11 5 -11 10 0 6 2 10 4 10 3 0 8 -4 11 -10z m119 -102 c11 -3 22
-11 24 -19 3 -11 1 -11 -7 1 -9 12 -10 7 -9 -20 1 -19 -2 -46 -6 -59 -6 -18
-5 -22 4 -16 9 5 11 4 6 -4 -4 -6 -11 -9 -15 -6 -5 2 -21 -7 -35 -20 -53 -49
-116 -23 -116 48 0 31 7 46 35 74 36 36 43 37 119 21z m-176 -25 c2 -13 -1
-23 -7 -23 -7 0 -7 -8 0 -26 7 -21 6 -31 -6 -44 -8 -9 -15 -21 -15 -27 0 -6
-7 -13 -15 -17 -18 -6 -45 2 -45 15 0 5 -7 9 -15 9 -8 0 -15 8 -15 18 0 13 -2
14 -9 4 -7 -12 -12 -12 -30 -1 -32 21 -26 35 24 56 25 10 45 22 45 26 0 5 4 6
9 2 6 -3 15 4 21 15 15 28 54 23 58 -7z m22 -129 c0 -3 -4 -2 -10 1 -5 3 -10
1 -10 -4 0 -6 -4 -11 -8 -11 -4 0 -8 9 -8 19 0 16 4 17 18 10 10 -5 18 -12 18
-15z m-45 -24 c3 -5 -1 -10 -9 -10 -9 0 -16 5 -16 10 0 6 4 10 9 10 6 0 13 -4
16 -10z m235 0 c0 -5 -7 -7 -15 -4 -8 4 -15 8 -15 10 0 2 7 4 15 4 8 0 15 -4
15 -10z m60 -4 c0 -2 -7 -7 -16 -10 -8 -3 -12 -2 -9 4 6 10 25 14 25 6z m-94
-32 c-3 -9 -6 -18 -6 -20 0 -2 -4 -4 -9 -4 -5 0 -7 9 -4 20 3 11 10 20 15 20
6 0 7 -7 4 -16z m-151 -3 c3 -5 2 -12 -3 -15 -5 -3 -9 1 -9 9 0 17 3 19 12 6z
m95 -15 c0 -2 -7 -7 -16 -10 -8 -3 -12 -2 -9 4 6 10 25 14 25 6z m25 -33 c5
-14 4 -15 -6 -6 -10 10 -16 10 -28 0 -14 -11 -14 -10 -2 6 7 9 17 17 21 17 4
0 11 -8 15 -17z m-41 -79 c9 -24 2 -26 -12 -4 -7 11 -8 20 -3 20 5 0 12 -7 15
-16z m23 -6 c-3 -8 -6 -5 -6 6 -1 11 2 17 5 13 3 -3 4 -12 1 -19z"/>
<path d="M1504 1345 c-10 -24 12 -42 34 -29 24 16 21 38 -6 42 -13 2 -25 -3
-28 -13z"/>
<path d="M1476 1305 c-3 -8 -1 -15 4 -15 6 0 10 7 10 15 0 8 -2 15 -4 15 -2 0
-6 -7 -10 -15z"/>
<path d="M1527 2970 c8 -69 8 -253 -1 -275 -4 -11 0 -7 9 9 11 17 15 41 12 60
-2 17 -1 54 2 83 4 31 3 60 -3 70 -6 10 -13 36 -17 58 -7 37 -7 37 -2 -5z"/>
<path d="M3020 2974 c0 -18 127 -134 147 -134 15 1 14 3 -6 14 -14 8 -51 40
-83 72 -32 32 -58 54 -58 48z"/>
<path d="M5337 2860 c4 -47 6 -112 5 -145 -1 -33 1 -73 6 -89 5 -18 7 25 6
110 -2 76 -7 155 -13 174 -8 27 -9 16 -4 -50z"/>
<path d="M5653 2800 c0 -25 2 -35 4 -22 2 12 2 32 0 45 -2 12 -4 2 -4 -23z"/>
<path d="M5662 2720 c0 -19 2 -27 5 -17 2 9 2 25 0 35 -3 9 -5 1 -5 -18z"/>
<path d="M6361 2674 c0 -16 4 -38 9 -49 6 -13 7 -5 3 25 -7 53 -13 66 -12 24z"/>
<path d="M4923 2618 l-1 -63 8 55 c5 30 5 59 1 63 -4 4 -8 -20 -8 -55z"/>
<path d="M6311 2621 c0 -18 8 -48 18 -65 16 -25 21 -55 24 -144 3 -62 8 -116
12 -120 4 -4 5 49 1 116 -5 89 -11 131 -23 149 -9 13 -20 41 -24 61 l-7 37 -1
-34z"/>
<path d="M6371 2584 c0 -11 3 -14 6 -6 3 7 2 16 -1 19 -3 4 -6 -2 -5 -13z"/>
<path d="M4995 2580 c3 -5 8 -10 11 -10 2 0 4 5 4 10 0 6 -5 10 -11 10 -5 0
-7 -4 -4 -10z"/>
<path d="M5012 2535 c0 -16 2 -22 5 -12 2 9 2 23 0 30 -3 6 -5 -1 -5 -18z"/>
<path d="M4930 2545 c0 -5 5 -17 10 -25 5 -8 10 -10 10 -5 0 6 -5 17 -10 25
-5 8 -10 11 -10 5z"/>
<path d="M4933 2488 c-15 -20 -25 -38 -20 -38 3 0 12 11 21 25 17 26 16 35 -1
13z"/>
<path d="M5012 2405 c0 -16 2 -22 5 -12 2 9 2 23 0 30 -3 6 -5 -1 -5 -18z"/>
<path d="M4437 2249 c7 -7 15 -10 18 -7 3 3 -2 9 -12 12 -14 6 -15 5 -6 -5z"/>
<path d="M6344 2194 c-1 -35 -7 -60 -17 -72 -10 -10 -17 -32 -17 -48 0 -17
-11 -45 -25 -64 -34 -46 -31 -53 5 -10 20 24 30 46 30 69 0 19 7 42 16 52 15
17 27 116 15 124 -4 2 -7 -21 -7 -51z"/>
<path d="M4310 2220 c-9 -6 -10 -10 -3 -10 6 0 15 5 18 10 8 12 4 12 -15 0z"/>
<path d="M4133 2183 c9 -2 25 -2 35 0 9 3 1 5 -18 5 -19 0 -27 -2 -17 -5z"/>
<path d="M444 1941 c4 -6 16 -16 28 -22 15 -8 18 -8 14 0 -4 6 -16 16 -28 22
-15 8 -18 8 -14 0z"/>
<path d="M228 1923 c7 -3 16 -2 19 1 4 3 -2 6 -13 5 -11 0 -14 -3 -6 -6z"/>
<path d="M2610 1774 c-14 -7 -45 -22 -70 -33 -25 -11 -56 -30 -70 -41 -14 -11
-43 -23 -65 -27 l-40 -6 30 33 c17 18 23 29 15 24 -8 -4 -25 -20 -37 -35 -13
-15 -40 -32 -61 -38 l-37 -10 35 5 c111 16 142 24 169 47 16 13 58 36 95 52
36 15 66 32 66 37 0 9 2 10 -30 -8z"/>
<path d="M2449 1753 c-13 -16 -12 -17 4 -4 9 7 17 15 17 17 0 8 -8 3 -21 -13z"/>
<path d="M4415 1449 c-22 -10 -34 -19 -27 -19 15 0 72 28 72 35 0 6 3 7 -45
-16z"/>
<path d="M3110 1350 c8 -5 20 -10 25 -10 6 0 3 5 -5 10 -8 5 -19 10 -25 10 -5
0 -3 -5 5 -10z"/>
<path d="M3724 1288 c3 -24 8 -78 12 -120 3 -43 10 -78 16 -78 5 0 7 8 4 18
-7 25 -16 109 -18 170 -1 28 -6 52 -11 52 -4 0 -6 -19 -3 -42z"/>
<path d="M4320 1327 c0 -2 14 -16 31 -33 32 -29 32 -29 15 -2 -14 21 -46 46
-46 35z"/>
<path d="M3013 1293 c9 -2 23 -2 30 0 6 3 -1 5 -18 5 -16 0 -22 -2 -12 -5z"/>
<path d="M2918 1283 c7 -3 16 -2 19 1 4 3 -2 6 -13 5 -11 0 -14 -3 -6 -6z"/>
<path d="M3062 1261 c-1 -14 -11 -38 -22 -53 -25 -35 -26 -46 -1 -24 11 10 23
32 27 50 3 17 11 34 16 37 5 4 4 9 -4 11 -9 4 -15 -3 -16 -21z"/>
<path d="M4406 1275 c-11 -8 -16 -15 -10 -15 5 0 18 7 28 15 11 8 16 15 10 15
-5 0 -18 -7 -28 -15z"/>
<path d="M4655 1279 c-27 -5 -86 -7 -130 -5 -60 2 -71 1 -45 -5 42 -11 221 -2
234 11 11 11 12 11 -59 -1z"/>
<path d="M4343 1180 c0 -36 2 -50 4 -32 2 17 2 47 0 65 -2 17 -4 3 -4 -33z"/>
<path d="M4970 1234 c0 -5 14 -23 31 -40 17 -18 36 -43 43 -55 6 -12 34 -36
61 -52 28 -16 61 -39 75 -52 22 -20 136 -52 147 -41 4 4 -88 26 -110 26 -7 0
-18 9 -25 20 -6 11 -33 31 -59 44 -29 14 -71 51 -105 91 -32 37 -58 63 -58 59z"/>
<path d="M701 1204 c0 -11 3 -14 6 -6 3 7 2 16 -1 19 -3 4 -6 -2 -5 -13z"/>
<path d="M1231 1202 c-7 -13 -6 -23 1 -30 14 -14 38 -16 38 -2 0 5 -7 7 -16 3
-12 -4 -15 -1 -12 13 2 12 11 18 22 16 11 -2 15 1 11 7 -10 17 -33 13 -44 -7z"/>
<path d="M90 1180 c-55 -7 -55 -7 -10 -7 25 -1 70 2 100 7 54 7 54 7 10 7 -25
0 -70 -3 -100 -7z"/>
<path d="M707 1163 c-4 -3 -7 -15 -7 -25 0 -13 7 -18 25 -18 20 0 25 5 25 25
0 18 -5 25 -18 25 -10 0 -22 -3 -25 -7z m33 -18 c0 -8 -7 -15 -15 -15 -8 0
-15 7 -15 15 0 8 7 15 15 15 8 0 15 -7 15 -15z"/>
<path d="M4978 1158 c11 -14 52 -31 52 -22 0 2 -15 11 -32 20 -28 14 -31 15
-20 2z"/>
<path d="M2978 1138 c-13 -13 -17 -17 -8 -11 14 11 16 8 17 -25 1 -20 -5 -44
-12 -52 -20 -22 -37 -70 -25 -70 6 0 10 8 10 19 0 10 9 30 20 44 11 14 20 38
19 54 -1 15 2 36 6 46 10 23 1 22 -27 -5z"/>
<path d="M3746 1035 c-3 -9 -5 -33 -5 -53 2 -33 2 -32 9 13 8 53 6 66 -4 40z"/>
<path d="M3733 875 c0 -33 2 -45 4 -27 2 18 2 45 0 60 -2 15 -4 0 -4 -33z"/>
<path d="M4205 870 c-16 -4 -47 -14 -69 -24 -21 -9 -59 -16 -83 -16 -34 0 -55
-7 -88 -31 -25 -18 -57 -32 -74 -33 -29 -1 -34 -16 -5 -16 20 0 88 35 103 54
9 11 30 16 65 16 28 0 73 9 101 19 27 11 66 24 85 29 41 12 9 14 -35 2z"/>
<path d="M3740 732 c0 -44 -3 -89 -6 -99 -5 -16 -4 -16 5 -2 11 18 17 166 7
176 -3 4 -6 -30 -6 -75z"/>
<path d="M5586 771 c-23 -25 -13 -41 22 -37 38 5 39 5 22 16 -9 5 -19 5 -27
-2 -8 -7 -13 -7 -13 0 0 5 7 15 15 22 11 9 15 9 15 1 0 -7 5 -9 10 -6 16 10
11 25 -8 25 -11 0 -27 -9 -36 -19z"/>
<path d="M2069 609 c18 -11 41 -18 50 -16 12 4 11 5 -4 6 -11 1 -29 8 -39 16
-11 8 -25 15 -30 15 -6 0 4 -9 23 -21z"/>
<path d="M2180 596 c24 -9 64 -15 88 -14 56 1 47 8 -14 12 -27 2 -65 6 -84 10
-27 5 -25 3 10 -8z"/>
<path d="M3630 591 c0 -5 -3 -16 -6 -25 -3 -9 -2 -16 4 -16 13 0 23 38 11 46
-5 3 -9 1 -9 -5z"/>
<path d="M3602 578 c-14 -14 -16 -28 -3 -28 5 0 11 9 14 20 6 23 5 24 -11 8z"/>
<path d="M3733 570 c4 -14 7 -60 7 -102 0 -43 3 -78 8 -78 10 0 -1 187 -12
197 -5 5 -6 -2 -3 -17z"/>
<path d="M5416 582 c-8 -13 -10 -191 -3 -198 3 -3 7 42 9 100 2 58 2 106 1
106 -1 0 -4 -4 -7 -8z"/>
<path d="M5424 215 c0 -82 2 -132 6 -110 3 22 3 90 -1 150 -6 108 -6 107 -5
-40z"/>
<path d="M3745 321 c-3 -6 -4 -15 -1 -19 3 -5 6 -68 7 -140 1 -73 5 -132 8
-132 6 0 2 292 -4 298 -2 2 -6 -1 -10 -7z"/>
</g>
</svg>
