<?xml version="1.0" standalone="no"?>
<!DOCTYPE svg PUBLIC "-//W3C//DTD SVG 20010904//EN"
 "http://www.w3.org/TR/2001/REC-SVG-20010904/DTD/svg10.dtd">
<svg version="1.0" xmlns="http://www.w3.org/2000/svg"
 width="1200.000000pt" height="1200.000000pt" viewBox="0 0 1200.000000 1200.000000"
 preserveAspectRatio="xMidYMid meet">

<g transform="translate(0.000000,1200.000000) scale(0.100000,-0.100000)"
fill="#000000" stroke="none">
<path d="M5801 10468 c-1 -40 -6 -89 -11 -108 -7 -26 -8 -13 -5 55 4 86 3 87
-6 30 -15 -92 -15 -92 -52 -58 -37 35 -78 63 -91 63 -5 0 4 -12 20 -27 16 -15
34 -26 39 -24 6 1 7 -1 2 -5 -4 -4 9 -24 28 -44 32 -33 38 -49 61 -156 48
-228 48 -226 29 -328 -9 -52 -22 -102 -29 -112 -13 -17 -16 -17 -80 0 -63 17
-70 22 -132 95 -75 86 -124 166 -205 330 -40 83 -57 110 -62 97 -4 -10 3 -43
17 -77 13 -32 21 -59 18 -59 -3 0 -21 12 -41 27 -20 14 -30 20 -23 13 18 -21
15 -34 -5 -19 -10 7 16 -23 58 -67 42 -43 89 -101 104 -129 15 -27 43 -71 61
-98 19 -26 34 -49 34 -51 0 -2 -18 -7 -40 -11 -31 -5 -47 -2 -75 15 -41 26
-43 23 -10 -16 21 -24 34 -29 92 -35 51 -5 93 -18 167 -54 l99 -46 -6 -42 c-3
-23 -22 -91 -42 -152 -19 -60 -42 -153 -50 -205 -19 -124 -41 -197 -69 -225
-24 -23 -353 -135 -398 -135 -38 1 -103 35 -153 81 -45 42 -195 232 -195 248
0 14 25 37 80 76 30 22 73 54 95 72 21 19 73 50 114 71 78 38 162 108 160 133
0 10 -2 11 -6 1 -2 -6 -10 -9 -15 -6 -7 5 -8 2 -4 -5 10 -15 -19 -48 -59 -68
l-30 -14 24 21 c25 21 22 26 -7 10 -39 -22 -172 -78 -172 -72 0 29 57 178 84
222 70 109 96 155 96 169 0 11 -3 11 -15 1 -8 -7 -12 -16 -9 -21 3 -5 -4 -21
-15 -35 -23 -29 -27 -25 -9 9 6 12 -10 -2 -36 -30 -27 -29 -51 -53 -55 -53 -4
0 -12 15 -19 34 -13 34 -48 73 -58 64 -3 -4 -1 -14 5 -25 5 -10 20 -40 31 -68
19 -46 20 -52 6 -85 -8 -19 -27 -69 -41 -110 -37 -109 -64 -151 -119 -187 -57
-39 -78 -41 -106 -11 -46 49 -145 235 -191 360 -54 144 -54 144 -34 343 4 33
2 71 -3 85 -8 20 -9 12 -7 -35 3 -48 2 -53 -4 -25 l-8 35 -2 -36 c0 -20 -8
-58 -16 -85 -8 -27 -15 -61 -15 -76 0 -16 -5 -28 -11 -28 -11 0 -128 92 -198
155 -24 22 -70 80 -102 129 -33 49 -59 87 -59 83 0 -3 16 -37 37 -74 40 -76
106 -149 203 -226 36 -29 76 -62 90 -74 31 -29 38 -29 49 0 8 19 9 17 8 -13 0
-19 3 -48 7 -65 5 -24 5 -26 -3 -8 -6 12 -52 55 -103 96 -138 111 -212 186
-242 245 -32 64 -42 68 -16 7 l19 -45 -27 -1 -27 -1 30 -8 30 -7 -30 -5 c-28
-5 -27 -5 8 -7 31 -1 48 -10 90 -50 29 -27 70 -64 92 -82 22 -19 68 -61 102
-94 59 -58 62 -64 98 -177 20 -64 35 -127 33 -140 -2 -17 -15 -27 -50 -40 -72
-27 -273 -58 -389 -60 l-104 -2 93 -3 c59 -3 92 -8 92 -15 0 -8 -31 -9 -102
-6 l-103 5 78 -10 c42 -6 77 -14 77 -18 0 -7 -32 -29 -103 -68 -21 -12 -66
-30 -100 -42 -93 -31 -157 -60 -157 -71 0 -6 12 -8 28 -4 15 3 55 12 89 20
l62 13 -6 -43 c-8 -59 7 -55 39 10 23 46 35 57 90 86 35 18 91 48 126 67 48
27 88 39 171 53 60 10 132 25 160 34 28 8 58 13 66 10 14 -6 86 -115 120 -184
10 -19 57 -91 105 -160 48 -69 97 -144 109 -167 52 -104 70 -287 37 -381 -32
-95 -74 -127 -291 -228 -60 -28 -137 -68 -170 -90 -33 -21 -79 -47 -102 -58
l-42 -19 -95 95 c-80 78 -100 104 -121 158 -14 35 -25 69 -25 74 0 6 14 23 32
38 l33 27 -27 1 c-15 0 -30 -4 -33 -10 -13 -22 -44 -8 -90 41 -27 29 -51 47
-53 41 -2 -6 17 -40 42 -75 43 -60 82 -144 72 -154 -2 -3 -16 3 -30 13 -15 9
-29 15 -31 12 -2 -2 14 -15 35 -28 22 -14 42 -30 45 -38 5 -15 -4 -10 -50 23
-43 31 -66 41 -30 13 150 -116 255 -222 255 -257 0 -10 -40 -56 -90 -103 -89
-86 -89 -86 -162 -98 -95 -16 -102 -18 -50 -19 89 -2 125 15 229 110 54 49 98
96 98 105 0 12 11 17 40 19 27 2 81 25 165 70 127 69 243 118 253 108 3 -3
-34 -25 -83 -49 -49 -24 -96 -52 -105 -61 -9 -9 -29 -17 -43 -18 -29 -3 -207
-92 -249 -124 -72 -58 -200 -189 -215 -223 -9 -21 -25 -65 -34 -98 -9 -33 -21
-63 -25 -66 -5 -3 -9 -11 -9 -17 0 -7 9 2 20 18 11 17 20 37 20 45 0 30 71
163 97 184 15 11 57 47 93 79 83 73 255 177 295 177 10 0 28 -25 46 -62 l30
-63 -6 -169 c-7 -168 -7 -169 -40 -225 -38 -63 -27 -83 15 -31 l27 33 11 -49
11 -49 -4 55 c-3 37 -1 47 4 30 11 -36 22 -152 12 -120 -8 21 -9 22 -10 5 0
-11 3 -26 8 -34 17 -27 22 26 11 130 -10 99 -5 250 10 277 4 9 17 -2 38 -35
18 -26 32 -41 32 -33 1 9 6 5 15 -10 27 -48 15 -9 -19 58 -18 37 -41 90 -50
117 -9 28 -28 80 -43 117 -14 37 -23 73 -20 81 7 19 162 83 237 98 99 19 148
9 217 -44 238 -183 328 -441 282 -814 -11 -98 -13 -101 -39 -106 -35 -8 -45
-34 -64 -172 -27 -196 -31 -288 -12 -317 15 -23 15 -26 -4 -43 -19 -17 -20
-30 -20 -240 0 -206 1 -223 20 -242 17 -19 18 -24 5 -50 -11 -22 -12 -46 -5
-108 5 -44 14 -136 20 -205 10 -109 14 -128 35 -150 17 -18 22 -29 15 -40 -16
-24 -12 -56 29 -245 40 -184 48 -215 60 -215 3 0 12 -4 20 -9 10 -7 11 -13 2
-30 -10 -17 -7 -43 14 -128 35 -145 85 -307 99 -315 40 -26 40 -25 27 -55 -10
-25 -8 -40 18 -113 17 -47 44 -137 60 -200 32 -120 51 -150 96 -150 20 0 25
-9 41 -72 37 -153 24 -177 -266 -473 -306 -312 -366 -384 -516 -620 -135 -212
-251 -440 -314 -620 -23 -66 -47 -131 -52 -145 -5 -15 -33 -39 -70 -60 -34
-19 -98 -59 -142 -89 -45 -30 -109 -67 -144 -83 -70 -32 -216 -162 -208 -185
3 -7 2 -12 -2 -11 -14 4 -92 -52 -92 -66 0 -18 24 -43 51 -51 29 -10 49 12 49
53 0 45 35 97 104 155 88 75 131 89 116 38 -4 -16 -11 -65 -15 -108 -4 -47
-15 -91 -26 -111 -25 -44 -24 -60 6 -74 19 -8 31 -8 50 0 29 14 31 26 9 78
-28 66 -5 223 40 273 19 22 180 132 234 160 44 23 45 12 38 -227 -7 -230 -15
-275 -51 -289 -25 -9 -105 -124 -146 -207 -21 -43 -44 -85 -50 -92 -6 -8 -9
-21 -5 -29 7 -20 53 -37 78 -29 17 5 19 12 13 42 -3 21 -7 51 -8 67 -2 52 123
245 159 245 23 0 44 -55 59 -157 19 -123 19 -152 0 -196 -13 -32 -13 -36 4
-51 23 -21 65 -21 82 0 11 14 10 22 -8 53 -15 25 -27 78 -38 162 -10 68 -26
147 -37 176 -17 48 -19 74 -15 330 4 258 5 282 26 333 45 111 94 210 106 210
20 0 67 -61 76 -99 5 -20 12 -117 15 -216 5 -137 4 -194 -6 -235 -9 -35 -13
-105 -12 -195 1 -110 -2 -148 -14 -177 -23 -51 -14 -68 35 -68 56 0 65 21 34
79 -24 44 -24 52 -20 191 4 139 10 180 27 180 14 0 49 -68 81 -158 26 -76 30
-95 24 -150 -8 -71 2 -82 58 -65 39 11 46 37 18 67 -12 13 -39 74 -61 136 -22
64 -57 140 -80 173 -34 51 -40 68 -40 111 0 28 -5 113 -11 189 -6 76 -9 140
-6 144 10 9 59 -27 153 -113 109 -100 143 -129 216 -183 31 -23 59 -50 63 -59
10 -25 45 -280 45 -326 0 -22 -5 -54 -12 -72 -19 -54 14 -74 88 -54 1 0 5 7 8
16 3 9 -3 29 -15 46 -16 21 -29 75 -50 201 -34 205 -33 187 -11 187 28 0 88
-42 122 -85 27 -34 31 -46 27 -79 -7 -54 0 -66 38 -66 31 0 65 21 65 40 0 25
-182 204 -222 219 -77 29 -107 46 -188 109 -47 37 -125 104 -175 149 -49 46
-108 91 -130 102 -38 18 -125 101 -125 119 0 13 129 231 215 363 99 152 192
275 294 389 91 101 499 522 517 533 22 13 207 -97 349 -208 93 -73 209 -189
260 -260 51 -72 165 -261 165 -275 0 -23 -76 -102 -115 -119 -22 -10 -76 -52
-120 -93 -116 -107 -207 -182 -290 -238 -78 -53 -118 -97 -158 -175 -14 -27
-37 -61 -51 -74 -36 -33 -33 -59 6 -76 51 -21 72 -5 64 49 -9 60 22 140 74
191 47 46 46 55 20 -151 -14 -110 -27 -171 -42 -201 -24 -48 -20 -59 28 -69
36 -7 69 19 58 45 -28 66 -28 71 -10 232 9 89 21 170 26 180 6 9 50 49 98 87
49 38 129 108 178 154 79 76 121 108 138 108 7 0 -3 -352 -10 -388 -3 -13 -29
-46 -59 -74 -61 -56 -107 -123 -139 -201 -12 -29 -30 -65 -41 -81 -14 -21 -16
-32 -8 -44 15 -24 70 -33 88 -15 18 18 18 21 0 53 -8 14 -14 34 -15 46 0 40
63 149 122 208 57 57 59 58 79 40 28 -25 80 -135 86 -183 4 -30 0 -52 -13 -77
-29 -53 0 -85 63 -69 27 6 27 10 0 95 -8 25 -22 72 -32 105 -9 33 -33 86 -52
117 l-34 58 3 213 3 214 30 35 c17 20 36 39 42 42 14 6 40 -39 106 -184 37
-80 39 -91 42 -200 2 -63 9 -186 16 -272 12 -157 12 -157 -13 -220 -14 -35
-31 -88 -38 -118 -7 -30 -21 -66 -31 -79 -26 -32 -24 -50 7 -61 64 -25 97 6
68 61 -11 21 -14 44 -10 69 8 53 47 141 60 137 19 -6 54 -78 87 -178 l32 -97
-23 -45 c-28 -55 -17 -77 36 -77 46 0 56 23 33 74 -10 23 -19 49 -19 59 0 48
-78 238 -121 297 -20 27 -32 128 -45 373 -5 90 -3 137 3 137 6 0 70 -38 144
-83 97 -62 137 -93 151 -118 24 -44 25 -159 2 -194 -23 -36 -14 -58 26 -66 25
-6 40 -3 52 8 16 14 16 18 -2 54 -11 21 -20 55 -20 76 0 21 -4 55 -9 76 -20
86 55 14 120 -115 32 -64 39 -88 34 -112 -3 -17 -7 -44 -8 -61 -2 -29 -1 -30
43 -30 40 0 45 3 48 23 2 13 -3 31 -12 41 -8 9 -28 49 -44 89 -36 86 -79 156
-124 198 -32 30 -260 177 -348 225 -51 28 -58 39 -130 224 -55 141 -137 296
-235 445 -103 157 -294 327 -532 474 -34 21 -69 46 -77 55 -9 9 -29 70 -46
136 -29 117 -29 119 -10 132 26 18 25 42 -4 133 -13 41 -40 128 -61 193 -26
84 -44 125 -63 142 -21 19 -24 27 -14 37 19 19 14 48 -23 140 -33 81 -45 127
-60 240 -4 34 -15 56 -36 77 -25 26 -28 33 -18 49 9 15 7 39 -14 118 -14 54
-33 137 -43 184 -18 89 -38 140 -54 140 -6 0 -3 11 5 24 15 22 15 32 0 108 -9
45 -19 142 -22 213 -5 114 -8 133 -26 153 -18 19 -19 25 -8 32 21 13 16 435
-5 468 -14 21 -13 24 5 40 18 15 22 35 31 152 5 74 17 166 25 205 20 92 19 99
-8 131 l-24 27 19 61 c21 70 130 294 199 411 70 117 283 314 376 346 57 20
157 14 263 -14 52 -15 142 -34 200 -43 158 -24 144 -10 159 -169 l13 -136 -32
-85 c-18 -46 -38 -85 -44 -85 -6 -1 -26 -3 -44 -3 -46 -3 -40 -20 8 -24 l40
-3 0 -74 c0 -70 10 -99 26 -74 3 6 11 48 16 92 5 46 19 103 32 132 l23 50 16
-35 17 -35 -5 35 -6 35 16 -34 c18 -40 21 -75 4 -51 -9 13 -10 13 -6 0 2 -8
10 -15 18 -15 10 0 14 -13 15 -45 1 -62 13 -112 26 -104 15 9 3 85 -27 173
-26 77 -55 250 -55 331 0 75 7 79 150 86 l125 7 145 -87 c79 -47 148 -92 153
-99 5 -7 6 -3 2 11 -3 12 -2 22 3 22 17 0 21 -12 11 -38 -7 -17 -6 -29 1 -36
8 -8 9 -6 4 8 -5 13 -4 17 4 12 7 -4 12 -2 12 4 0 13 148 11 156 -2 3 -4 13
-8 22 -8 11 1 8 6 -11 16 -15 8 -32 12 -37 9 -6 -3 -10 -2 -10 3 0 5 -39 19
-86 32 -69 18 -107 36 -195 94 -59 39 -108 74 -109 78 0 3 19 18 43 32 23 15
60 40 82 56 22 16 52 29 68 30 15 0 27 5 27 11 0 19 -90 1 -124 -25 -17 -13
-56 -35 -87 -50 -51 -24 -66 -26 -185 -26 -131 0 -280 20 -341 45 -30 13 -32
17 -27 47 19 104 26 117 166 277 56 63 74 77 119 91 67 21 80 45 20 37 -22 -3
-41 -3 -41 1 0 3 16 34 35 69 36 65 43 89 24 78 -6 -4 -8 -9 -5 -12 2 -3 -9
-18 -25 -34 -17 -16 -27 -34 -23 -41 4 -6 3 -8 -3 -5 -6 4 -26 -18 -46 -47
-40 -61 -142 -174 -150 -166 -3 3 0 39 8 80 12 75 12 107 -1 55 -4 -17 -9 -22
-14 -15 -4 6 -16 -26 -28 -72 -36 -149 -95 -308 -113 -308 -30 0 -218 68 -262
94 -77 47 -87 59 -87 112 0 92 32 235 63 278 11 16 59 54 106 84 47 31 122 83
166 117 121 94 113 92 187 41 35 -24 104 -65 153 -91 50 -26 120 -65 158 -87
37 -21 71 -36 77 -33 13 8 102 -49 93 -60 -5 -4 3 -5 15 -2 16 4 52 -8 109
-34 47 -22 87 -38 90 -35 7 7 -88 66 -98 61 -4 -3 -5 4 -2 14 4 15 -6 23 -54
41 -93 35 -451 222 -494 258 -21 19 -39 42 -39 52 0 10 35 60 78 111 66 80 83
95 122 106 219 61 224 62 247 47 12 -8 31 -14 43 -14 11 0 20 -5 20 -11 0 -6
7 -9 15 -5 8 3 15 1 15 -4 0 -6 7 -10 16 -10 24 0 10 14 -40 39 -25 12 -46 28
-46 35 0 6 18 30 40 51 40 39 49 55 29 55 -5 0 -7 -5 -3 -12 5 -7 2 -9 -8 -5
-9 3 -31 -5 -50 -19 -18 -14 -46 -33 -63 -42 -33 -17 -225 -63 -225 -53 0 3 9
50 20 104 11 55 17 104 13 110 -3 6 -1 7 5 3 6 -3 16 3 22 14 7 13 7 20 0 20
-5 0 -10 -4 -10 -10 0 -5 -5 -9 -12 -7 -7 1 -13 -7 -14 -18 -5 -78 -44 -231
-56 -220 -3 3 3 33 13 66 11 34 19 68 19 77 -1 10 -11 -14 -24 -53 -31 -95
-36 -104 -131 -208 -79 -88 -228 -208 -261 -211 -22 -1 -74 99 -74 144 0 20 7
63 16 95 9 33 26 99 38 147 l22 87 86 78 c87 78 109 109 43 59 -19 -15 -35
-24 -35 -20 0 3 -18 -10 -40 -30 -22 -20 -44 -36 -49 -36 -5 0 -14 28 -19 63
l-11 62 5 -85 c4 -93 0 -95 -16 -10 l-9 55 4 -55 c3 -31 -2 -84 -11 -120 -19
-80 -65 -230 -71 -230 -2 0 -16 13 -29 30 -41 48 -83 75 -97 61 -9 -9 -7 -11
8 -5 11 4 17 4 13 -1 -4 -4 15 -36 42 -72 50 -66 115 -228 103 -259 -3 -8 -47
-35 -98 -60 -72 -36 -107 -47 -157 -51 -61 -5 -68 -4 -120 29 -61 40 -112 104
-150 193 -39 88 -43 160 -19 279 28 130 36 145 95 168 44 17 56 18 125 6 109
-17 157 -16 178 5 17 17 16 18 -23 11 -30 -4 -61 0 -110 16 -38 12 -75 24 -81
26 -19 5 -16 24 18 131 26 80 39 105 79 147 46 49 77 96 65 96 -4 0 -25 -15
-48 -33 -65 -52 -65 -52 -77 -5 -34 134 -42 154 -51 131 -4 -13 -2 -57 8 -110
8 -48 15 -95 15 -103 0 -19 -65 -198 -87 -240 -11 -21 -23 -30 -40 -30 -33 0
-32 7 11 170 19 74 40 176 45 225 10 101 17 128 29 120 4 -2 10 8 13 23 3 16
26 56 51 89 26 34 53 77 61 97 16 38 20 82 7 90 -4 2 -6 -10 -4 -27 4 -36 -34
-118 -58 -125 -12 -4 -11 -1 3 15 9 11 17 23 17 27 0 4 -28 -24 -62 -63 -33
-39 -62 -70 -64 -69 -1 2 -15 48 -30 103 -24 86 -28 119 -28 237 -1 143 -13
203 -15 76z m-456 -268 c3 -5 1 -10 -4 -10 -6 0 -11 5 -11 10 0 6 2 10 4 10 3
0 8 -4 11 -10z m609 -93 c-34 -38 -78 -110 -90 -147 l-12 -35 -1 32 c-1 25 11
48 47 94 26 33 51 67 57 75 5 7 11 11 14 8 2 -2 -4 -14 -15 -27z m-508 -110
c20 -34 47 -77 61 -95 14 -18 23 -36 20 -39 -3 -3 -27 28 -53 69 -26 40 -55
85 -66 100 -20 30 -23 42 -8 33 5 -3 26 -34 46 -68z m125 -183 c13 -19 40 -44
59 -55 27 -15 29 -18 10 -13 -32 8 -126 104 -103 104 6 0 21 -16 34 -36z m250
-94 c-25 -68 -26 -49 -3 47 14 59 18 67 20 41 1 -18 -6 -58 -17 -88z m-690 27
c-10 -9 -11 -8 -5 6 3 10 9 15 12 12 3 -3 0 -11 -7 -18z m649 -191 c-16 -43
-20 -27 -7 29 9 38 12 44 15 24 1 -14 -2 -38 -8 -53z m-1120 -120 c0 -5 -7 -1
-15 10 -8 10 -14 24 -14 29 0 6 6 1 14 -9 8 -11 15 -24 15 -30z m-80 21 c0 -7
-10 -13 -22 -14 -22 -2 -22 -1 -4 13 24 17 26 17 26 1z m510 -2 c0 -2 -13 -11
-30 -20 -38 -19 -40 -11 -2 9 31 17 32 18 32 11z m646 -81 c-15 -14 -16 -14
-16 1 0 9 6 26 12 38 l13 22 3 -23 c2 -12 -4 -29 -12 -38z m-1026 -18 c0 -12
-5 -7 -19 24 -11 24 -11 24 3 6 9 -11 16 -24 16 -30z m1647 -8 c-3 -7 -5 -2
-5 12 0 14 2 19 5 13 2 -7 2 -19 0 -25z m-1561 -68 c8 0 33 12 55 26 54 33 63
23 10 -11 -22 -15 -46 -40 -53 -55 l-12 -28 -25 37 c-28 40 -51 78 -51 85 0 2
14 -9 31 -25 17 -16 37 -29 45 -29z m1551 18 c-3 -8 -6 -5 -6 6 -1 11 2 17 5
13 3 -3 4 -12 1 -19z m713 -18 c0 -5 -4 -10 -10 -10 -5 0 -10 5 -10 10 0 6 5
10 10 10 6 0 10 -4 10 -10z m-733 -52 c-3 -8 -6 -5 -6 6 -1 11 2 17 5 13 3 -3
4 -12 1 -19z m-108 -81 c20 -22 41 -45 47 -51 6 -6 15 -29 21 -51 6 -22 18
-58 28 -80 9 -22 12 -35 5 -29 -6 6 -24 43 -40 83 -17 41 -50 97 -77 129 -54
62 -41 62 16 -1z m423 -69 c-7 -7 -12 -8 -12 -2 0 14 12 26 19 19 2 -3 -1 -11
-7 -17z m-22 -22 c0 -2 -8 -10 -17 -17 -16 -13 -17 -12 -4 4 13 16 21 21 21
13z m-1588 -138 c14 -36 -9 -17 -48 40 -61 86 -62 92 -8 33 27 -30 52 -62 56
-73z m1558 92 c0 -5 -4 -10 -10 -10 -5 0 -10 -7 -10 -15 0 -28 73 -83 213
-159 91 -50 79 -57 -14 -10 -151 76 -238 155 -208 190 13 16 29 18 29 4z
m-216 -137 c-21 -15 -34 -17 -34 -4 0 10 17 18 39 18 9 0 8 -4 -5 -14z m-276
-173 c-7 -11 -22 -20 -33 -20 -19 1 -19 2 4 20 30 26 45 26 29 0z m-533 -140
c47 -45 47 -81 1 -108 -64 -38 -72 -37 -163 11 -20 10 -53 65 -53 87 0 6 9 19
21 31 18 18 30 21 90 17 62 -3 72 -7 104 -38z m952 -256 c-8 -21 -17 -56 -21
-76 -4 -21 -11 -40 -17 -43 -6 -4 -8 4 -4 22 9 41 47 144 51 140 3 -2 -2 -21
-9 -43z m-1858 -261 c12 -34 21 -70 21 -80 -1 -16 -54 123 -66 172 -10 40 24
-30 45 -92z m2451 -49 c0 -2 -9 0 -20 6 -11 6 -20 13 -20 16 0 2 9 0 20 -6 11
-6 20 -13 20 -16z m90 -61 c0 -7 -39 17 -46 28 -3 6 5 3 20 -6 14 -10 26 -19
26 -22z m-423 -405 c-3 -8 -6 -5 -6 6 -1 11 2 17 5 13 3 -3 4 -12 1 -19z
m-1387 -305 c0 -16 -4 -44 -9 -63 -6 -19 -15 -96 -21 -170 -6 -74 -14 -138
-18 -142 -4 -4 -13 -3 -21 1 -11 7 -11 25 -2 102 7 52 16 117 22 144 5 28 10
68 11 90 1 60 38 95 38 38z m-55 -699 c0 -167 -2 -194 -15 -192 -13 3 -15 33
-15 198 -1 107 1 199 3 203 2 5 9 4 16 -3 7 -7 11 -74 11 -206z m25 -389 c1
-38 5 -104 10 -145 24 -183 24 -180 7 -180 -23 0 -28 24 -33 160 -3 69 -10
151 -16 183 -9 48 -9 60 3 67 21 14 29 -8 29 -85z m74 -517 c10 -51 21 -113
25 -138 5 -25 13 -58 20 -73 17 -43 14 -79 -6 -75 -13 2 -20 21 -29 73 -30
179 -37 210 -54 248 -20 45 -18 57 9 57 14 0 21 -18 35 -92z m114 -471 c14
-95 26 -147 40 -172 33 -61 52 -145 33 -145 -12 0 -41 45 -41 64 0 8 -11 47
-25 88 -14 40 -25 92 -25 116 0 43 -14 81 -33 94 -15 9 10 38 27 32 7 -3 18
-37 24 -77z m134 -453 c32 -108 54 -180 80 -253 21 -61 26 -87 18 -95 -17 -16
-38 18 -46 73 -3 25 -12 60 -19 76 -6 17 -18 55 -24 85 -7 30 -24 72 -38 94
-20 31 -22 40 -11 47 20 13 31 6 40 -27z m216 -699 c-3 -3 -9 2 -12 12 -6 14
-5 15 5 6 7 -7 10 -15 7 -18z m-148 -98 c0 -1 -24 -25 -52 -52 l-53 -50 50 53
c46 48 55 57 55 49z m-180 -182 c-41 -41 -76 -72 -79 -70 -4 5 139 145 148
145 3 0 -28 -34 -69 -75z m-183 -187 c-171 -186 -171 -186 -149 -153 20 31
230 255 239 255 2 0 -38 -46 -90 -102z m-227 -268 c-11 -16 -26 -33 -33 -37
-12 -7 0 11 32 50 23 28 24 20 1 -13z m-77 -105 c-3 -9 -8 -14 -10 -11 -3 3
-2 9 2 15 9 16 15 13 8 -4z m-43 -62 c0 -5 -10 -19 -21 -33 l-21 -25 18 33
c18 32 24 38 24 25z m880 -633 c0 -5 -4 -10 -10 -10 -5 0 -10 5 -10 10 0 6 5
10 10 10 6 0 10 -4 10 -10z m1260 -60 c0 -5 -7 -10 -16 -10 -8 0 -12 5 -9 10
3 6 10 10 16 10 5 0 9 -4 9 -10z m-524 -107 c-10 -10 -19 5 -10 18 6 11 8 11
12 0 2 -7 1 -15 -2 -18z m-596 -1 c0 -13 -12 -22 -22 -16 -10 6 -1 24 13 24 5
0 9 -4 9 -8z m1320 -2 c0 -5 -7 -10 -16 -10 -8 0 -12 5 -9 10 3 6 10 10 16 10
5 0 9 -4 9 -10z m-1050 -10 c0 -5 -7 -10 -16 -10 -8 0 -12 5 -9 10 3 6 10 10
16 10 5 0 9 -4 9 -10z m440 -230 c0 -5 -7 -10 -16 -10 -8 0 -12 5 -9 10 3 6
10 10 16 10 5 0 9 -4 9 -10z m-1154 -97 c-10 -10 -19 5 -10 18 6 11 8 11 12 0
2 -7 1 -15 -2 -18z m1368 -34 c-3 -5 -10 -7 -15 -3 -5 3 -7 10 -3 15 3 5 10 7
15 3 5 -3 7 -10 3 -15z m-2944 -79 c0 -5 -4 -10 -10 -10 -5 0 -10 5 -10 10 0
6 5 10 10 10 6 0 10 -4 10 -10z m270 -50 c0 -5 -7 -10 -15 -10 -8 0 -15 5 -15
10 0 6 7 10 15 10 8 0 15 -4 15 -10z m1134 -61 c-3 -5 -10 -7 -15 -3 -5 3 -7
10 -3 15 3 5 10 7 15 3 5 -3 7 -10 3 -15z m-343 -12 c-13 -13 -26 -3 -16 12 3
6 11 8 17 5 6 -4 6 -10 -1 -17z m-186 -67 c-3 -5 -10 -10 -16 -10 -5 0 -9 5
-9 10 0 6 7 10 16 10 8 0 12 -4 9 -10z m-470 -220 c3 -5 -1 -10 -9 -10 -9 0
-16 5 -16 10 0 6 4 10 9 10 6 0 13 -4 16 -10z m287 -72 c-7 -7 -12 -8 -12 -2
0 14 12 26 19 19 2 -3 -1 -11 -7 -17z"/>
<path d="M3998 10093 c7 -3 16 -2 19 1 4 3 -2 6 -13 5 -11 0 -14 -3 -6 -6z"/>
<path d="M4088 10083 c7 -3 16 -2 19 1 4 3 -2 6 -13 5 -11 0 -14 -3 -6 -6z"/>
<path d="M6350 9621 c0 -6 4 -13 10 -16 6 -3 7 1 4 9 -7 18 -14 21 -14 7z"/>
<path d="M6801 9424 c0 -11 3 -14 6 -6 3 7 2 16 -1 19 -3 4 -6 -2 -5 -13z"/>
<path d="M3915 9380 c-8 -13 35 -13 55 0 11 7 7 10 -17 10 -17 0 -35 -4 -38
-10z"/>
<path d="M6610 8635 c0 -8 2 -15 4 -15 2 0 6 7 10 15 3 8 1 15 -4 15 -6 0 -10
-7 -10 -15z"/>
<path d="M4020 8416 c0 -2 7 -7 16 -10 8 -3 12 -2 9 4 -6 10 -25 14 -25 6z"/>
<path d="M7280 8190 c0 -5 5 -10 11 -10 5 0 7 5 4 10 -3 6 -8 10 -11 10 -2 0
-4 -4 -4 -10z"/>
<path d="M3750 7879 c33 -20 39 -21 120 -9 100 14 115 18 76 19 -16 1 -57 -4
-92 -10 -52 -9 -67 -8 -92 5 -45 23 -53 19 -12 -5z"/>
<path d="M3950 7865 c-129 -16 -181 -29 -212 -55 -20 -17 -15 -16 39 6 72 28
313 58 313 38 0 -6 -7 -31 -15 -54 -8 -23 -15 -48 -15 -54 1 -15 50 106 50
122 0 14 -19 14 -160 -3z"/>
<path d="M3744 7863 c3 -6 -6 -21 -20 -32 -15 -12 -23 -21 -18 -21 5 0 20 9
34 20 21 16 23 21 11 32 -8 8 -11 8 -7 1z"/>
<path d="M3670 7770 c-9 -6 -10 -10 -3 -10 6 0 15 5 18 10 8 12 4 12 -15 0z"/>
<path d="M4792 7760 c0 -8 4 -26 8 -40 6 -20 8 -21 8 -5 0 11 -3 29 -8 40 -5
12 -8 14 -8 5z"/>
</g>
</svg>
